<?xml version="1.0" standalone="no"?>
<!DOCTYPE svg PUBLIC "-//W3C//DTD SVG 20010904//EN"
 "http://www.w3.org/TR/2001/REC-SVG-20010904/DTD/svg10.dtd">
<svg version="1.0" xmlns="http://www.w3.org/2000/svg"
 width="16.000000pt" height="16.000000pt" viewBox="0 0 16.000000 16.000000"
 preserveAspectRatio="xMidYMid meet">
<metadata>
Created by potrace 1.11, written by Peter Selinger 2001-2013
</metadata>
<g transform="translate(0.000000,16.000000) scale(0.003125,-0.003125)"
fill="#000000" stroke="none">
<path d="M2642 4668 c-17 -11 -30 -23 -28 -26 37 -71 1263 -2191 1271 -2200
11 -12 17 -11 41 4 16 10 30 19 32 19 2 2 -1272 2212 -1280 2220 -2 2 -18 -5
-36 -17z"/>
<path d="M1133 4189 c-29 -18 -31 -23 -21 -42 27 -51 1201 -2083 1207 -2089 4
-4 21 1 39 12 l33 21 -19 32 c-11 17 -284 491 -607 1052 -324 561 -591 1023
-594 1027 -3 4 -21 -2 -38 -13z"/>
<path d="M4677 2471 c-277 -412 -425 -600 -636 -803 -281 -271 -538 -383 -981
-428 -58 -6 -283 -15 -500 -20 -594 -14 -808 -32 -1683 -146 l-137 -18 0 -38
c0 -47 -12 -46 231 -13 620 84 931 112 1344 125 823 25 962 39 1200 117 376
123 673 386 1071 948 93 131 313 461 316 475 2 5 -11 19 -28 30 l-30 20 -167
-249z"/>
</g>
</svg>
